<?xml version="1.0" encoding="UTF-8" standalone="no"?>
<svg
   xmlns:dc="http://purl.org/dc/elements/1.1/"
   xmlns:cc="http://creativecommons.org/ns#"
   xmlns:rdf="http://www.w3.org/1999/02/22-rdf-syntax-ns#"
   xmlns:svg="http://www.w3.org/2000/svg"
   xmlns="http://www.w3.org/2000/svg"
   xmlns:sodipodi="http://sodipodi.sourceforge.net/DTD/sodipodi-0.dtd"
   xmlns:inkscape="http://www.inkscape.org/namespaces/inkscape"
   viewBox="0 0 650 650"
   version="1.1"
   id="svg4"
   sodipodi:docname="icon-mask.svg"
   width="650"
   height="650"
   inkscape:version="0.92.5 (2060ec1f9f, 2020-04-08)"
   inkscape:export-filename="/home/amcolash/Github/garage-remote/public/icon-512.png"
   inkscape:export-xdpi="75.618462"
   inkscape:export-ydpi="75.618462">
  <metadata
     id="metadata10">
    <rdf:RDF>
      <cc:Work
         rdf:about="">
        <dc:format>image/svg+xml</dc:format>
        <dc:type
           rdf:resource="http://purl.org/dc/dcmitype/StillImage" />
        <dc:title></dc:title>
      </cc:Work>
    </rdf:RDF>
  </metadata>
  <defs
     id="defs8" />
  <sodipodi:namedview
     pagecolor="#ffffff"
     bordercolor="#666666"
     borderopacity="1"
     objecttolerance="10"
     gridtolerance="10"
     guidetolerance="10"
     inkscape:pageopacity="0"
     inkscape:pageshadow="2"
     inkscape:window-width="2560"
     inkscape:window-height="1387"
     id="namedview6"
     showgrid="false"
     inkscape:zoom="0.921875"
     inkscape:cx="-78.304879"
     inkscape:cy="288.11316"
     inkscape:window-x="0"
     inkscape:window-y="28"
     inkscape:window-maximized="1"
     inkscape:current-layer="svg4" />
  <rect
     style="fill:#252525;fill-opacity:1;stroke:none;stroke-width:11.73585796;stroke-linecap:round;stroke-linejoin:round;stroke-miterlimit:4;stroke-dasharray:none;stroke-opacity:1"
     id="rect812"
     width="650"
     height="650"
     x="0"
     y="0" />
  <!--! Font Awesome Pro 6.1.1 by @fontawesome - https://fontawesome.com License - https://fontawesome.com/license (Commercial License) Copyright 2022 Fonticons, Inc. -->
  <path
     id="path2"
     d="m 166.04975,398.72891 c 0,-8.17162 6.60489,-14.74578 14.74579,-14.74578 46.14815,0 83.55944,37.41743 83.55944,83.55945 0,8.17162 -6.57416,14.74578 -14.74578,14.74578 -8.17163,0 -14.74579,-6.57416 -14.74579,-14.74578 0,-29.86021 -24.20766,-54.06788 -54.06787,-54.06788 -8.1409,0 -14.74579,-6.57416 -14.74579,-14.74579 z m 0,63.89841 c 0,-10.87501 8.80446,-19.66105 19.66105,-19.66105 10.85659,0 19.66104,8.78604 19.66104,19.66105 0,10.87502 -8.80445,19.66104 -19.66104,19.66104 -10.85659,0 -19.66105,-8.78602 -19.66105,-19.66104 z m 157.28836,4.91526 c 0,8.17162 -6.57417,14.74578 -14.74578,14.74578 -8.17162,0 -14.74579,-6.57416 -14.74579,-14.74578 0,-62.42382 -50.62719,-113.05102 -113.051,-113.05102 -8.1409,0 -14.74579,-6.57417 -14.74579,-14.74578 0,-8.17162 6.60489,-14.74578 14.74579,-14.74578 78.70562,0 142.54257,63.83695 142.54257,142.54258 z m 49.15262,-299.83094 c -4.77702,0 -9.55357,1.73805 -13.33217,5.21406 l -127.7968,117.97468 c -2.82627,2.58051 -4.74337,5.89879 -5.67726,9.40091 19.46375,4.61161 37.58259,12.74059 53.69466,23.6595 h 176.209 c 5.40679,0 9.83053,2.28679 9.83053,5.08087 v 5.71446 c 0,2.79409 -4.42374,5.08086 -9.83053,5.08086 H 299.31741 c 3.00256,2.79183 5.90172,5.69418 8.69291,8.70011 h 147.57784 c 5.40679,0 9.83053,2.2868 9.83053,5.08087 v 5.71447 c 0,2.79408 -4.42374,5.08086 -9.83053,5.08086 H 321.03649 c 2.0486,2.8325 4.00161,5.73836 5.87407,8.70011 h 128.6776 c 5.40679,0 9.83053,2.28682 9.83053,5.08086 v 5.71448 c 0,2.79407 -4.42374,5.08086 -9.83053,5.08086 H 335.79067 c 1.39814,2.85543 2.71467,5.75771 3.95284,8.7001 h 115.84465 c 5.40679,0 9.83053,2.28681 9.83053,5.08086 v 5.71449 c 0,2.79407 -4.42374,5.08086 -9.83053,5.08086 H 345.49759 c 0.98169,3.20797 1.87252,6.45471 2.66283,9.73931 H 451.1349 c 16.28182,0 29.49158,-13.20977 29.49158,-29.49156 V 325 h 19.66104 c 8.11018,0 15.36066,-4.97719 18.30983,-12.47296 2.94916,-7.55722 0.98209,-16.15845 -4.97767,-21.62667 L 385.82289,172.92569 c -3.7786,-3.47601 -8.55515,-5.21406 -13.33216,-5.21405 z"
     inkscape:connector-curvature="0"
     style="fill:#cccccc;fill-opacity:1;stroke-width:0.61440772"
     inkscape:export-xdpi="75.618462"
     inkscape:export-ydpi="75.618462" />
</svg>
